<?xml version="1.0" standalone="no"?><!-- Generator: Gravit.io --><svg xmlns="http://www.w3.org/2000/svg" xmlns:xlink="http://www.w3.org/1999/xlink" style="isolation:isolate" viewBox="317 265 64 64" width="64" height="64"><defs><clipPath id="_clipPath_QUEJ7itDj4bVWZouNoagtahL3a9rp05n"><rect x="317" y="265" width="64" height="64"/></clipPath></defs><g clip-path="url(#_clipPath_QUEJ7itDj4bVWZouNoagtahL3a9rp05n)"><path d=" M 325.727 265 C 322.498 265 319.909 267.589 319.909 270.818 L 319.909 282.455 C 319.909 285.684 322.498 288.273 325.727 288.273 L 317 288.273 L 317 294.091 L 351.909 294.091 L 351.909 288.273 L 343.182 288.273 C 346.411 288.273 349 285.684 349 282.455 L 349 270.818 C 349 267.589 346.411 265 343.182 265 L 325.727 265 Z  M 325.727 270.818 L 343.182 270.818 L 343.182 282.455 L 325.727 282.455 L 325.727 270.818 Z  M 322.818 299.909 L 322.818 314.455 L 322.818 320.273 L 343.182 320.273 L 343.182 314.455 L 328.636 314.455 L 328.636 299.909 L 322.818 299.909 Z  M 354.818 299.909 C 351.589 299.909 349 302.498 349 305.727 L 349 317.364 C 349 320.593 351.589 323.182 354.818 323.182 L 346.091 323.182 L 346.091 329 L 381 329 L 381 323.182 L 372.273 323.182 C 375.502 323.182 378.091 320.593 378.091 317.364 L 378.091 305.727 C 378.091 302.498 375.502 299.909 372.273 299.909 L 354.818 299.909 Z  M 354.818 305.727 L 372.273 305.727 L 372.273 317.364 L 354.818 317.364 L 354.818 305.727 Z " fill="rgb(255,255,255)"/></g></svg>