<?xml version="1.0" standalone="no"?><!-- Generator: Gravit.io --><svg xmlns="http://www.w3.org/2000/svg" xmlns:xlink="http://www.w3.org/1999/xlink" style="isolation:isolate" viewBox="316 242 64 64" width="64" height="64"><defs><clipPath id="_clipPath_5ul447LFY51Oc1cNCqkPYzLEChzmnGqP"><rect x="316" y="242" width="64" height="64"/></clipPath></defs><g clip-path="url(#_clipPath_5ul447LFY51Oc1cNCqkPYzLEChzmnGqP)"><path d=" M 324.727 242 C 321.498 242 318.909 244.589 318.909 247.818 L 318.909 259.455 C 318.909 262.684 321.498 265.273 324.727 265.273 L 316 265.273 L 316 271.091 L 350.909 271.091 L 350.909 265.273 L 342.182 265.273 C 345.411 265.273 348 262.684 348 259.455 L 348 247.818 C 348 244.589 345.411 242 342.182 242 L 324.727 242 Z  M 324.727 247.818 L 342.182 247.818 L 342.182 259.455 L 324.727 259.455 L 324.727 247.818 Z  M 353.818 276.909 C 350.589 276.909 348 279.498 348 282.727 L 348 294.364 C 348 297.593 350.589 300.182 353.818 300.182 L 345.091 300.182 L 345.091 306 L 380 306 L 380 300.182 L 371.273 300.182 C 374.502 300.182 377.091 297.593 377.091 294.364 L 377.091 282.727 C 377.091 279.498 374.502 276.909 371.273 276.909 L 353.818 276.909 Z  M 324.378 278.247 L 320.247 282.378 L 326.444 288.545 L 320.247 294.713 L 324.378 298.844 L 330.545 292.647 L 336.713 298.844 L 340.844 294.713 L 334.647 288.545 L 340.844 282.378 L 336.713 278.247 L 330.545 284.444 L 324.378 278.247 Z  M 353.818 282.727 L 371.273 282.727 L 371.273 294.364 L 353.818 294.364 L 353.818 282.727 Z " fill="rgb(255,255,255)"/></g></svg>