<svg version="1.0" id="Layer_1" data-name="Layer 1" xmlns="http://www.w3.org/2000/svg"
 width="25.000000pt" height="25.000000pt" viewBox="-66 6 175 164"
 preserveAspectRatio="xMidYMid meet">

<g transform="translate(0.000000,107.000000) scale(0.100000,-0.100000)"
fill="#FFFFFF" stroke="none">
<path d="M352 957 c-62 -62 -110 -116 -106 -120 4 -4 38 -7 76 -7 l68 0 0
-144 c0 -130 2 -146 21 -170 16 -21 29 -26 64 -26 35 0 48 5 64 26 19 24 21
40 21 170 l0 144 70 0 c50 0 70 4 70 13 0 15 -211 227 -225 227 -6 0 -61 -51
-123 -113z"/>
<path d="M0 310 l0 -240 29 -32 29 -33 409 -3 c364 -3 411 -1 439 13 18 9 37
28 43 41 7 16 11 108 11 259 l0 235 -80 0 -80 0 0 -190 0 -190 -320 0 -320 0
0 190 0 190 -80 0 -80 0 0 -240z"/>
</g>
</svg>
