<?xml version="1.0" standalone="no"?><!-- Generator: Gravit.io --><svg xmlns="http://www.w3.org/2000/svg" xmlns:xlink="http://www.w3.org/1999/xlink" style="isolation:isolate" viewBox="0 0 64 64" width="64" height="64"><defs><clipPath id="_clipPath_4UVOSO9iwppix55vbicmG8ejWlktIp2Z"><rect width="64" height="64"/></clipPath></defs><g clip-path="url(#_clipPath_4UVOSO9iwppix55vbicmG8ejWlktIp2Z)"><path d=" M 24.977 6.764 C 21.265 10.475 18.392 13.707 18.632 13.947 C 18.871 14.186 20.906 14.366 23.181 14.366 L 27.251 14.366 L 27.251 22.985 C 27.251 30.767 27.371 31.725 28.508 33.161 C 29.466 34.418 30.244 34.717 32.339 34.717 C 34.434 34.717 35.212 34.418 36.17 33.161 C 37.307 31.725 37.427 30.767 37.427 22.985 L 37.427 14.366 L 41.617 14.366 C 44.61 14.366 45.807 14.126 45.807 13.588 C 45.807 12.69 33.177 0 32.339 0 C 31.98 0 28.688 3.053 24.977 6.764 Z " fill="rgb(255,255,255)"/><path d=" M 3.907 45.492 L 3.907 59.858 L 5.643 61.773 L 7.378 63.748 L 31.86 63.928 C 53.648 64.108 56.462 63.988 58.138 63.15 C 59.215 62.611 60.352 61.474 60.712 60.696 C 61.131 59.738 61.37 54.231 61.37 45.193 L 61.37 31.126 L 56.581 31.126 L 51.793 31.126 L 51.793 42.499 L 51.793 53.872 L 32.638 53.872 L 13.484 53.872 L 13.484 42.499 L 13.484 31.126 L 8.695 31.126 L 3.907 31.126 L 3.907 45.492 Z " fill="rgb(255,255,255)"/></g></svg>