<svg xmlns="http://www.w3.org/2000/svg" viewBox="0 0 2247.36 689"><defs><style>.cls-1{fill:#353535;}.cls-2{fill:none;}.cls-3{fill:#190101;}.cls-4{fill:#fff;}.cls-5{fill:#5ba55b;}.cls-6{opacity:0.2;}.cls-7{fill:#c15656;}</style></defs><title>Asset 2</title><g id="Layer_2" data-name="Layer 2"><g id="Layer_1-2" data-name="Layer 1"><line class="cls-1" x1="464" y1="20" x2="464" y2="192"/><line class="cls-1" x1="464" y1="20" x2="464" y2="192"/><path class="cls-1" d="M467.55,48.15"/><line class="cls-2" x1="434" x2="434" y2="172"/><line class="cls-2" x1="434" x2="434" y2="172"/><path class="cls-3" d="M437.55,28.15"/><path class="cls-4" d="M1047.16,412.45A123.56,123.56,0,0,1,1037,448.68,93.45,93.45,0,0,1,1017.18,477a86.27,86.27,0,0,1-28.91,18.36q-16.7,6.54-37.21,6.54a97,97,0,0,1-31.93-5,87.88,87.88,0,0,1-25.59-13.77,91.28,91.28,0,0,1-19.34-20.7,125.62,125.62,0,0,1-13.48-26,156,156,0,0,1-8-29.49,199.58,199.58,0,0,1-2.83-31.25V336.09a199.61,199.61,0,0,1,2.83-31.25,156,156,0,0,1,8-29.49,128.13,128.13,0,0,1,13.48-26.07,90.42,90.42,0,0,1,19.34-20.8A88.17,88.17,0,0,1,919,214.7a96.71,96.71,0,0,1,32-5q21.29,0,38.09,6.54a83.62,83.62,0,0,1,28.91,18.55,91.71,91.71,0,0,1,19.43,28.81,129.5,129.5,0,0,1,9.67,37.11H1011a106.56,106.56,0,0,0-6.05-24,66.25,66.25,0,0,0-11.52-19.53A51.09,51.09,0,0,0,975.78,244q-10.45-4.78-24.71-4.79a57.67,57.67,0,0,0-22.75,4.2,52.47,52.47,0,0,0-17,11.43,65.27,65.27,0,0,0-11.91,16.8,109.94,109.94,0,0,0-7.71,20.31,145.44,145.44,0,0,0-4.2,22,193.41,193.41,0,0,0-1.27,21.78v40a193.37,193.37,0,0,0,1.27,21.78,148.18,148.18,0,0,0,4.2,22.07A113.68,113.68,0,0,0,899.31,440a63.81,63.81,0,0,0,11.91,16.89,53,53,0,0,0,17,11.52q9.76,4.2,22.85,4.2,14.25,0,24.71-4.49a49.55,49.55,0,0,0,17.68-12.6A62.56,62.56,0,0,0,1005,436.38a104.81,104.81,0,0,0,6.05-23.93Z"/><path class="cls-4" d="M1092.87,390.38a131.73,131.73,0,0,1,6.64-42.48,101.72,101.72,0,0,1,19-34.08,88.71,88.71,0,0,1,30.18-22.75q17.77-8.3,40-8.3,22.46,0,40.33,8.3a88.49,88.49,0,0,1,30.27,22.75,101.82,101.82,0,0,1,19,34.08,131.81,131.81,0,0,1,6.64,42.48v4.3a130.92,130.92,0,0,1-6.64,42.38,102,102,0,0,1-19,34,87.62,87.62,0,0,1-30.18,22.66q-17.77,8.2-40,8.2-22.46,0-40.33-8.2A87.33,87.33,0,0,1,1118.55,471a101.86,101.86,0,0,1-19-34,130.84,130.84,0,0,1-6.64-42.38Zm36.13,4.3a117,117,0,0,0,3.71,29.79,77,77,0,0,0,11.23,24.9,55.39,55.39,0,0,0,18.85,17q11.32,6.25,26.37,6.25,14.84,0,26.07-6.25a55.73,55.73,0,0,0,18.75-17,77.07,77.07,0,0,0,11.23-24.9,117.13,117.13,0,0,0,3.71-29.79v-4.3a113.47,113.47,0,0,0-3.81-29.59,78.67,78.67,0,0,0-11.33-24.9A56.75,56.75,0,0,0,1215,318.8q-11.23-6.34-26.27-6.35t-26.17,6.35a57,57,0,0,0-18.65,17.09,77,77,0,0,0-11.23,24.9,116.25,116.25,0,0,0-3.71,29.59Z"/><path class="cls-4" d="M1336.23,390.58a150.43,150.43,0,0,1,6-43.46q6-19.82,17-34.08a78.92,78.92,0,0,1,26.66-22.27,75.53,75.53,0,0,1,35-8q18.94,0,33.11,6.35a69.19,69.19,0,0,1,24.51,18.46V198h36.13V498h-33.2l-1.56-22.27a69.08,69.08,0,0,1-25.2,19.53q-14.65,6.64-34.18,6.64a73.05,73.05,0,0,1-34.67-8.2A79.41,79.41,0,0,1,1359.27,471a109.19,109.19,0,0,1-17-34.08,142.73,142.73,0,0,1-6.05-42.29Zm36.13,4.1a125.33,125.33,0,0,0,3.32,29.3,76.39,76.39,0,0,0,10.25,24.41,51.59,51.59,0,0,0,17.68,16.7q10.74,6.15,25.78,6.15a59.58,59.58,0,0,0,16.6-2.15,48.9,48.9,0,0,0,13.48-6.15,50.1,50.1,0,0,0,10.74-9.57,66,66,0,0,0,8.2-12.4v-98a61.18,61.18,0,0,0-18.95-21.19q-11.92-8.3-29.69-8.3-15.23,0-26.07,6.25a51.9,51.9,0,0,0-17.77,16.89,77.57,77.57,0,0,0-10.25,24.61,126.6,126.6,0,0,0-3.32,29.39Z"/><path class="cls-4" d="M1660.84,423l9.38,25.59,64.45-161.91h40.43L1667.87,530.62a147.4,147.4,0,0,1-9.47,17.38,88.22,88.22,0,0,1-14,17,74.36,74.36,0,0,1-19.14,13.09q-10.94,5.27-25.2,5.27-2.54,0-5.66-.29t-6.25-.78q-3.13-.49-5.86-1.07l-4.49-1,5.86-29.49c.91,0,2.15.06,3.71.2l4.88.39q2.54.19,4.88.29t3.71.1a24,24,0,0,0,13.57-4.1,52.11,52.11,0,0,0,10.94-9.77,76.58,76.58,0,0,0,8.2-11.72q3.41-6.06,5.37-10L1653.41,488l-91-201.37h40.43Z"/><path class="cls-5" d="M1927.83,345.46h79.49V381.4h-79.49v88.09H1891.7V381.4h-79.3V345.46h79.3v-83h36.13Z"/><path class="cls-5" d="M2167.87,345.46h79.49V381.4h-79.49v88.09h-36.13V381.4h-79.3V345.46h79.3v-83h36.13Z"/><path class="cls-6" d="M562,55V187a20,20,0,0,1-20,20H344V607h64a20,20,0,0,1,20,20v42a20,20,0,0,1-20,20H96a20,20,0,0,1-20-20V129a94,94,0,0,1,94-94H542A20,20,0,0,1,562,55Z"/><g class="cls-6"><path d="M707,407c0,43.63-60.75,70.83-60.75,70.83C636.21,482.32,628,495,628,506v81a20.06,20.06,0,0,1-20,20H248a20.06,20.06,0,0,1-20-20V506c0-11,8.21-23.68,18.25-28.17,0,0,60.75-27.2,60.75-70.83s-60.75-70.83-60.75-70.83C236.21,331.68,228,319,228,308V227a20.06,20.06,0,0,1,20-20H608a20.06,20.06,0,0,1,20,20v81c0,11,8.21,23.68,18.25,28.17C646.25,336.17,707,363.37,707,407Z"/></g><circle class="cls-6" cx="708" cy="163" r="35"/><circle class="cls-6" cx="809" cy="70" r="35"/><path class="cls-5" d="M486,20V152a20,20,0,0,1-20,20H268V572h64a20,20,0,0,1,20,20v42a20,20,0,0,1-20,20H20A20,20,0,0,1,0,634V94A94,94,0,0,1,94,0H466A20,20,0,0,1,486,20Z"/><path class="cls-7" d="M631,372c0,43.63-60.75,70.83-60.75,70.83C560.21,447.32,552,460,552,471v81a20.06,20.06,0,0,1-20,20H172a20.06,20.06,0,0,1-20-20V471c0-11,8.21-23.68,18.25-28.17,0,0,60.75-27.2,60.75-70.83s-60.75-70.83-60.75-70.83C160.21,296.68,152,284,152,273V192a20.06,20.06,0,0,1,20-20H532a20.06,20.06,0,0,1,20,20v81c0,11,8.21,23.68,18.25,28.17C570.25,301.17,631,328.37,631,372Z"/><circle class="cls-5" cx="677" cy="128" r="35"/><circle class="cls-5" cx="778" cy="35" r="35"/></g></g></svg>