<?xml version="1.0" standalone="no"?><!-- Generator: Gravit.io --><svg xmlns="http://www.w3.org/2000/svg" xmlns:xlink="http://www.w3.org/1999/xlink" style="isolation:isolate" viewBox="0 0 64 64" width="64" height="64"><defs><clipPath id="_clipPath_7tiA6p6Rzn5mslMGKXWqkJYq6rFlmGEy"><rect width="64" height="64"/></clipPath></defs><g clip-path="url(#_clipPath_7tiA6p6Rzn5mslMGKXWqkJYq6rFlmGEy)"><path d=" M 1.042 1.191 C 0.447 1.637 0 16.074 0 33.191 L 0 64.149 L 32 64.149 L 64 64.149 L 64 32 L 64 0 L 56.26 0.447 L 48.521 0.893 L 48.967 9.377 L 49.265 18.009 L 29.916 18.009 L 10.419 18.009 L 10.419 9.079 C 10.419 0.298 10.419 0.149 6.251 0.149 C 3.87 0.149 1.488 0.595 1.042 1.191 Z  M 52.093 40.781 C 52.093 47.181 51.349 52.391 50.307 53.433 C 49.116 54.623 42.27 55.219 29.47 55.219 L 10.419 55.219 L 10.419 42.567 L 10.419 29.916 L 31.256 29.916 L 52.093 29.916 L 52.093 40.781 Z " fill="rgb(255,255,255)"/><path d=" M 36.713 7.442 C 36.713 14.735 36.862 14.884 41.178 14.884 C 45.495 14.884 45.643 14.735 45.643 7.442 C 45.643 0.149 45.495 0 41.178 0" fill="rgb(255,255,255)"/></g></svg>