<svg version="1.0" id="Layer_1" data-name="Layer 1" xmlns="http://www.w3.org/2000/svg" width="36.000000pt" height="36.000000pt" viewBox="-23 16 96 64" preserveAspectRatio="xMidYMid meet">
  <g transform="translate(0.000000,43.000000) scale(0.100000,-0.100000)" fill="#FFFFFF" stroke="none">
    <path d="M7 423 c-4 -3 -7 -100 -7 -215 l0 -208 215 0 215 0 0 216 0 215 -52
-3 -52 -3 3 -57 2 -58 -130 0 -131 0 0 60 c0 59 0 60 -28 60 -16 0 -32 -3 -35
-7z m343 -266 c0 -43 -5 -78 -12 -85 -8 -8 -54 -12 -140 -12 l-128 0 0 85 0
85 140 0 140 0 0 -73z"/>
    <path d="M220 380 c0 -49 1 -50 30 -50 29 0 30 1 30 50 0 49 -1 50 -30 50 -290 -30 -1 -30 -50z"/>
  </g>
</svg>
