<?xml version="1.0" standalone="no"?><!-- Generator: Gravit.io --><svg xmlns="http://www.w3.org/2000/svg" xmlns:xlink="http://www.w3.org/1999/xlink" style="isolation:isolate" viewBox="0 0 64 64" width="64" height="64"><defs><clipPath id="_clipPath_YZ2odDnAmrdnB3AEH2KxstnhWev1cfgs"><rect width="64" height="64"/></clipPath></defs><g clip-path="url(#_clipPath_YZ2odDnAmrdnB3AEH2KxstnhWev1cfgs)"><path d=" M 0 0 L 64 0 L 64 64 L 0 64 L 0 0 Z " fill="none"/><path d=" M 54.849 35.008 C 54.977 34.048 55.041 33.056 55.041 32 C 55.041 30.976 54.977 29.952 54.817 28.992 L 61.314 23.936 C 61.89 23.487 62.05 22.623 61.698 21.983 L 55.553 11.359 C 55.169 10.655 54.369 10.431 53.665 10.655 L 46.017 13.727 C 44.417 12.511 42.721 11.487 40.833 10.719 L 39.68 2.59 C 39.552 1.822 38.912 1.278 38.144 1.278 L 25.856 1.278 C 25.088 1.278 24.48 1.822 24.352 2.59 L 23.199 10.719 C 21.311 11.487 19.583 12.543 18.015 13.727 L 10.367 10.655 C 9.663 10.399 8.863 10.655 8.479 11.359 L 2.366 21.983 C 1.982 22.655 2.11 23.487 2.75 23.936 L 9.247 28.992 C 9.087 29.952 8.959 31.008 8.959 32 C 8.959 32.992 9.023 34.048 9.183 35.008 L 2.686 40.064 C 2.11 40.513 1.95 41.377 2.302 42.017 L 8.447 52.641 C 8.831 53.345 9.631 53.569 10.335 53.345 L 17.983 50.273 C 19.583 51.489 21.279 52.513 23.167 53.281 L 24.32 61.41 C 24.48 62.178 25.088 62.722 25.856 62.722 L 38.144 62.722 C 38.912 62.722 39.552 62.178 39.648 61.41 L 40.801 53.281 C 42.689 52.513 44.417 51.489 45.985 50.273 L 53.633 53.345 C 54.337 53.601 55.137 53.345 55.521 52.641 L 61.666 42.017 C 62.05 41.313 61.89 40.513 61.282 40.064 L 54.849 35.008 Z  M 32 43.521 C 25.664 43.521 20.479 38.336 20.479 32 C 20.479 25.664 25.664 20.479 32 20.479 C 38.336 20.479 43.521 25.664 43.521 32 C 43.521 38.336 38.336 43.521 32 43.521 Z " fill="rgb(255,255,255)"/></g></svg>