<?xml version="1.0" encoding="UTF-8"?><!DOCTYPE svg PUBLIC "-//W3C//DTD SVG 1.1//EN" "http://www.w3.org/Graphics/SVG/1.1/DTD/svg11.dtd"><svg xmlns="http://www.w3.org/2000/svg" xmlns:xlink="http://www.w3.org/1999/xlink"><defs><clipPath id="_clipPath_QUEJ7itDj4bVWZouNoagtahL3a9rp05n"><rect x="317" y="265" width="64" height="64"/></clipPath><clipPath id="_clipPath_5ul447LFY51Oc1cNCqkPYzLEChzmnGqP"><rect x="316" y="242" width="64" height="64"/></clipPath><clipPath id="_clipPath_4UVOSO9iwppix55vbicmG8ejWlktIp2Z"><rect width="64" height="64"/></clipPath><style>.cls-1{fill:#353535;}.cls-2{fill:none;}.cls-3{fill:#190101;}.cls-4{fill:#fff;}.cls-5{fill:#5ba55b;}.cls-6{opacity:0.2;}.cls-7{fill:#c15656;}</style><style>.cls-1{fill: currentColor;}</style><style>.cls-1{fill: currentColor;}</style><clipPath id="_clipPath_rrJ5hKGCy85tjcj1ojrNGoEk5h12zUx3"><rect width="64" height="64"/></clipPath><style>.cls-1{fill: currentColor;}</style><clipPath id="_clipPath_YZ2odDnAmrdnB3AEH2KxstnhWev1cfgs"><rect width="64" height="64"/></clipPath></defs><symbol id="arrow" viewBox="0 0 96 64" fill="currentColor"><polygon points="56 10.18 96 32 96 32 56 53.82 56 10.18"/><rect y="24.5" width="56" height="15"/></symbol><symbol id="connect" viewBox="317 265 64 64" fill="currentColor"><g clip-path="url(#_clipPath_QUEJ7itDj4bVWZouNoagtahL3a9rp05n)"><path d=" M 325.727 265 C 322.498 265 319.909 267.589 319.909 270.818 L 319.909 282.455 C 319.909 285.684 322.498 288.273 325.727 288.273 L 317 288.273 L 317 294.091 L 351.909 294.091 L 351.909 288.273 L 343.182 288.273 C 346.411 288.273 349 285.684 349 282.455 L 349 270.818 C 349 267.589 346.411 265 343.182 265 L 325.727 265 Z  M 325.727 270.818 L 343.182 270.818 L 343.182 282.455 L 325.727 282.455 L 325.727 270.818 Z  M 322.818 299.909 L 322.818 314.455 L 322.818 320.273 L 343.182 320.273 L 343.182 314.455 L 328.636 314.455 L 328.636 299.909 L 322.818 299.909 Z  M 354.818 299.909 C 351.589 299.909 349 302.498 349 305.727 L 349 317.364 C 349 320.593 351.589 323.182 354.818 323.182 L 346.091 323.182 L 346.091 329 L 381 329 L 381 323.182 L 372.273 323.182 C 375.502 323.182 378.091 320.593 378.091 317.364 L 378.091 305.727 C 378.091 302.498 375.502 299.909 372.273 299.909 L 354.818 299.909 Z  M 354.818 305.727 L 372.273 305.727 L 372.273 317.364 L 354.818 317.364 L 354.818 305.727 Z " fill="rgb(255,255,255)"/></g></symbol><symbol id="disconnect" viewBox="316 242 64 64" fill="currentColor"><g clip-path="url(#_clipPath_5ul447LFY51Oc1cNCqkPYzLEChzmnGqP)"><path d=" M 324.727 242 C 321.498 242 318.909 244.589 318.909 247.818 L 318.909 259.455 C 318.909 262.684 321.498 265.273 324.727 265.273 L 316 265.273 L 316 271.091 L 350.909 271.091 L 350.909 265.273 L 342.182 265.273 C 345.411 265.273 348 262.684 348 259.455 L 348 247.818 C 348 244.589 345.411 242 342.182 242 L 324.727 242 Z  M 324.727 247.818 L 342.182 247.818 L 342.182 259.455 L 324.727 259.455 L 324.727 247.818 Z  M 353.818 276.909 C 350.589 276.909 348 279.498 348 282.727 L 348 294.364 C 348 297.593 350.589 300.182 353.818 300.182 L 345.091 300.182 L 345.091 306 L 380 306 L 380 300.182 L 371.273 300.182 C 374.502 300.182 377.091 297.593 377.091 294.364 L 377.091 282.727 C 377.091 279.498 374.502 276.909 371.273 276.909 L 353.818 276.909 Z  M 324.378 278.247 L 320.247 282.378 L 326.444 288.545 L 320.247 294.713 L 324.378 298.844 L 330.545 292.647 L 336.713 298.844 L 340.844 294.713 L 334.647 288.545 L 340.844 282.378 L 336.713 278.247 L 330.545 284.444 L 324.378 278.247 Z  M 353.818 282.727 L 371.273 282.727 L 371.273 294.364 L 353.818 294.364 L 353.818 282.727 Z " fill="rgb(255,255,255)"/></g></symbol><symbol id="load" viewBox="0 0 64 64" fill="currentColor"><g clip-path="url(#_clipPath_4UVOSO9iwppix55vbicmG8ejWlktIp2Z)"><path d=" M 24.977 6.764 C 21.265 10.475 18.392 13.707 18.632 13.947 C 18.871 14.186 20.906 14.366 23.181 14.366 L 27.251 14.366 L 27.251 22.985 C 27.251 30.767 27.371 31.725 28.508 33.161 C 29.466 34.418 30.244 34.717 32.339 34.717 C 34.434 34.717 35.212 34.418 36.17 33.161 C 37.307 31.725 37.427 30.767 37.427 22.985 L 37.427 14.366 L 41.617 14.366 C 44.61 14.366 45.807 14.126 45.807 13.588 C 45.807 12.69 33.177 0 32.339 0 C 31.98 0 28.688 3.053 24.977 6.764 Z " fill="rgb(255,255,255)"/><path d=" M 3.907 45.492 L 3.907 59.858 L 5.643 61.773 L 7.378 63.748 L 31.86 63.928 C 53.648 64.108 56.462 63.988 58.138 63.15 C 59.215 62.611 60.352 61.474 60.712 60.696 C 61.131 59.738 61.37 54.231 61.37 45.193 L 61.37 31.126 L 56.581 31.126 L 51.793 31.126 L 51.793 42.499 L 51.793 53.872 L 32.638 53.872 L 13.484 53.872 L 13.484 42.499 L 13.484 31.126 L 8.695 31.126 L 3.907 31.126 L 3.907 45.492 Z " fill="rgb(255,255,255)"/></g></symbol><symbol id="logo" viewBox="0 0 2247.36 689" fill="currentColor"><g id="Layer_2" data-name="Layer 2"><g id="Layer_1-2" data-name="Layer 1"><line class="cls-1" x1="464" y1="20" x2="464" y2="192"/><line class="cls-1" x1="464" y1="20" x2="464" y2="192"/><path class="cls-1" d="M467.55,48.15"/><line class="cls-2" x1="434" x2="434" y2="172"/><line class="cls-2" x1="434" x2="434" y2="172"/><path class="cls-3" d="M437.55,28.15"/><path class="cls-4" d="M1047.16,412.45A123.56,123.56,0,0,1,1037,448.68,93.45,93.45,0,0,1,1017.18,477a86.27,86.27,0,0,1-28.91,18.36q-16.7,6.54-37.21,6.54a97,97,0,0,1-31.93-5,87.88,87.88,0,0,1-25.59-13.77,91.28,91.28,0,0,1-19.34-20.7,125.62,125.62,0,0,1-13.48-26,156,156,0,0,1-8-29.49,199.58,199.58,0,0,1-2.83-31.25V336.09a199.61,199.61,0,0,1,2.83-31.25,156,156,0,0,1,8-29.49,128.13,128.13,0,0,1,13.48-26.07,90.42,90.42,0,0,1,19.34-20.8A88.17,88.17,0,0,1,919,214.7a96.71,96.71,0,0,1,32-5q21.29,0,38.09,6.54a83.62,83.62,0,0,1,28.91,18.55,91.71,91.71,0,0,1,19.43,28.81,129.5,129.5,0,0,1,9.67,37.11H1011a106.56,106.56,0,0,0-6.05-24,66.25,66.25,0,0,0-11.52-19.53A51.09,51.09,0,0,0,975.78,244q-10.45-4.78-24.71-4.79a57.67,57.67,0,0,0-22.75,4.2,52.47,52.47,0,0,0-17,11.43,65.27,65.27,0,0,0-11.91,16.8,109.94,109.94,0,0,0-7.71,20.31,145.44,145.44,0,0,0-4.2,22,193.41,193.41,0,0,0-1.27,21.78v40a193.37,193.37,0,0,0,1.27,21.78,148.18,148.18,0,0,0,4.2,22.07A113.68,113.68,0,0,0,899.31,440a63.81,63.81,0,0,0,11.91,16.89,53,53,0,0,0,17,11.52q9.76,4.2,22.85,4.2,14.25,0,24.71-4.49a49.55,49.55,0,0,0,17.68-12.6A62.56,62.56,0,0,0,1005,436.38a104.81,104.81,0,0,0,6.05-23.93Z"/><path class="cls-4" d="M1092.87,390.38a131.73,131.73,0,0,1,6.64-42.48,101.72,101.72,0,0,1,19-34.08,88.71,88.71,0,0,1,30.18-22.75q17.77-8.3,40-8.3,22.46,0,40.33,8.3a88.49,88.49,0,0,1,30.27,22.75,101.82,101.82,0,0,1,19,34.08,131.81,131.81,0,0,1,6.64,42.48v4.3a130.92,130.92,0,0,1-6.64,42.38,102,102,0,0,1-19,34,87.62,87.62,0,0,1-30.18,22.66q-17.77,8.2-40,8.2-22.46,0-40.33-8.2A87.33,87.33,0,0,1,1118.55,471a101.86,101.86,0,0,1-19-34,130.84,130.84,0,0,1-6.64-42.38Zm36.13,4.3a117,117,0,0,0,3.71,29.79,77,77,0,0,0,11.23,24.9,55.39,55.39,0,0,0,18.85,17q11.32,6.25,26.37,6.25,14.84,0,26.07-6.25a55.73,55.73,0,0,0,18.75-17,77.07,77.07,0,0,0,11.23-24.9,117.13,117.13,0,0,0,3.71-29.79v-4.3a113.47,113.47,0,0,0-3.81-29.59,78.67,78.67,0,0,0-11.33-24.9A56.75,56.75,0,0,0,1215,318.8q-11.23-6.34-26.27-6.35t-26.17,6.35a57,57,0,0,0-18.65,17.09,77,77,0,0,0-11.23,24.9,116.25,116.25,0,0,0-3.71,29.59Z"/><path class="cls-4" d="M1336.23,390.58a150.43,150.43,0,0,1,6-43.46q6-19.82,17-34.08a78.92,78.92,0,0,1,26.66-22.27,75.53,75.53,0,0,1,35-8q18.94,0,33.11,6.35a69.19,69.19,0,0,1,24.51,18.46V198h36.13V498h-33.2l-1.56-22.27a69.08,69.08,0,0,1-25.2,19.53q-14.65,6.64-34.18,6.64a73.05,73.05,0,0,1-34.67-8.2A79.41,79.41,0,0,1,1359.27,471a109.19,109.19,0,0,1-17-34.08,142.73,142.73,0,0,1-6.05-42.29Zm36.13,4.1a125.33,125.33,0,0,0,3.32,29.3,76.39,76.39,0,0,0,10.25,24.41,51.59,51.59,0,0,0,17.68,16.7q10.74,6.15,25.78,6.15a59.58,59.58,0,0,0,16.6-2.15,48.9,48.9,0,0,0,13.48-6.15,50.1,50.1,0,0,0,10.74-9.57,66,66,0,0,0,8.2-12.4v-98a61.18,61.18,0,0,0-18.95-21.19q-11.92-8.3-29.69-8.3-15.23,0-26.07,6.25a51.9,51.9,0,0,0-17.77,16.89,77.57,77.57,0,0,0-10.25,24.61,126.6,126.6,0,0,0-3.32,29.39Z"/><path class="cls-4" d="M1660.84,423l9.38,25.59,64.45-161.91h40.43L1667.87,530.62a147.4,147.4,0,0,1-9.47,17.38,88.22,88.22,0,0,1-14,17,74.36,74.36,0,0,1-19.14,13.09q-10.94,5.27-25.2,5.27-2.54,0-5.66-.29t-6.25-.78q-3.13-.49-5.86-1.07l-4.49-1,5.86-29.49c.91,0,2.15.06,3.71.2l4.88.39q2.54.19,4.88.29t3.71.1a24,24,0,0,0,13.57-4.1,52.11,52.11,0,0,0,10.94-9.77,76.58,76.58,0,0,0,8.2-11.72q3.41-6.06,5.37-10L1653.41,488l-91-201.37h40.43Z"/><path class="cls-5" d="M1927.83,345.46h79.49V381.4h-79.49v88.09H1891.7V381.4h-79.3V345.46h79.3v-83h36.13Z"/><path class="cls-5" d="M2167.87,345.46h79.49V381.4h-79.49v88.09h-36.13V381.4h-79.3V345.46h79.3v-83h36.13Z"/><path class="cls-6" d="M562,55V187a20,20,0,0,1-20,20H344V607h64a20,20,0,0,1,20,20v42a20,20,0,0,1-20,20H96a20,20,0,0,1-20-20V129a94,94,0,0,1,94-94H542A20,20,0,0,1,562,55Z"/><g class="cls-6"><path d="M707,407c0,43.63-60.75,70.83-60.75,70.83C636.21,482.32,628,495,628,506v81a20.06,20.06,0,0,1-20,20H248a20.06,20.06,0,0,1-20-20V506c0-11,8.21-23.68,18.25-28.17,0,0,60.75-27.2,60.75-70.83s-60.75-70.83-60.75-70.83C236.21,331.68,228,319,228,308V227a20.06,20.06,0,0,1,20-20H608a20.06,20.06,0,0,1,20,20v81c0,11,8.21,23.68,18.25,28.17C646.25,336.17,707,363.37,707,407Z"/></g><circle class="cls-6" cx="708" cy="163" r="35"/><circle class="cls-6" cx="809" cy="70" r="35"/><path class="cls-5" d="M486,20V152a20,20,0,0,1-20,20H268V572h64a20,20,0,0,1,20,20v42a20,20,0,0,1-20,20H20A20,20,0,0,1,0,634V94A94,94,0,0,1,94,0H466A20,20,0,0,1,486,20Z"/><path class="cls-7" d="M631,372c0,43.63-60.75,70.83-60.75,70.83C560.21,447.32,552,460,552,471v81a20.06,20.06,0,0,1-20,20H172a20.06,20.06,0,0,1-20-20V471c0-11,8.21-23.68,18.25-28.17,0,0,60.75-27.2,60.75-70.83s-60.75-70.83-60.75-70.83C160.21,296.68,152,284,152,273V192a20.06,20.06,0,0,1,20-20H532a20.06,20.06,0,0,1,20,20v81c0,11,8.21,23.68,18.25,28.17C570.25,301.17,631,328.37,631,372Z"/><circle class="cls-5" cx="677" cy="128" r="35"/><circle class="cls-5" cx="778" cy="35" r="35"/></g></g></symbol><symbol id="pause" viewBox="0 0 64 64" fill="currentColor"><rect x="41.83" width="22.17" height="64"/><rect width="22.17" height="64"/></symbol><symbol id="play" viewBox="0 0 64 64" fill="currentColor"><polygon class="cls-1" points="0 0 64 33 64 33 0 64 0 0"/></symbol><symbol id="save" viewBox="0 0 64 64" fill="currentColor"><g clip-path="url(#_clipPath_rrJ5hKGCy85tjcj1ojrNGoEk5h12zUx3)"><clipPath id="_clipPath_JN4sqXFTKs0NfLbo8KWonoHGRPsMqYb7"><rect x="0" y="0" width="64" height="64" transform="matrix(1,0,0,1,0,0)" fill="rgb(255,255,255)"/></clipPath><g clip-path="url(#_clipPath_JN4sqXFTKs0NfLbo8KWonoHGRPsMqYb7)"><path d=" M 1.002 3 L 1.071 61 C 1.072 62.104 1.969 63 3.073 63 L 7.772 63 L 32.036 63 L 61 63 C 62.104 63 63 62.104 63 61 L 63 31.981 L 63 3.105 C 63 2.002 62.104 1.105 61 1.105 L 55.259 1.105 L 50 1.029 C 48.896 1.013 48 1.896 48 3 L 48 10.153 L 48 16.482 C 48 17.585 47.104 18.482 46 18.482 L 30.02 18.482 L 16 18.482 C 14.896 18.482 14 17.585 14 16.482 L 14 3.105 C 14 2.002 13.104 1.098 12 1.089 L 3 1.016 C 1.896 1.007 1.001 1.896 1.002 3 Z  M 49.479 54.384 L 13.155 54.384 C 12.051 54.384 11.155 53.488 11.155 52.384 L 11.155 42.176 L 11.155 31.97 C 11.155 30.866 12.051 29.97 13.155 29.97 L 31.317 29.97 L 49.479 29.97 C 50.583 29.97 51.479 30.866 51.479 31.97 L 51.479 40.453 L 51.479 52.384 C 51.479 53.488 50.583 54.384 49.479 54.384 Z " fill="rgb(255,255,255)"/><path d=" M 40 3 L 44 3 C 44.552 3 45 3.448 45 4 L 45 15 C 45 15.552 44.552 16 44 16 L 40 16 C 39.448 16 39 15.552 39 15 L 39 4 C 39 3.448 39.448 3 40 3 Z " fill="rgb(255,255,255)"/></g></g></symbol><symbol id="stop" viewBox="0 0 64 64" fill="currentColor"><rect class="cls-1" width="64" height="64"/></symbol><symbol id="settings" viewBox="0 0 64 64" fill="currentColor"><g clip-path="url(#_clipPath_YZ2odDnAmrdnB3AEH2KxstnhWev1cfgs)"><path d=" M 0 0 L 64 0 L 64 64 L 0 64 L 0 0 Z " fill="none"/><path d=" M 54.849 35.008 C 54.977 34.048 55.041 33.056 55.041 32 C 55.041 30.976 54.977 29.952 54.817 28.992 L 61.314 23.936 C 61.89 23.487 62.05 22.623 61.698 21.983 L 55.553 11.359 C 55.169 10.655 54.369 10.431 53.665 10.655 L 46.017 13.727 C 44.417 12.511 42.721 11.487 40.833 10.719 L 39.68 2.59 C 39.552 1.822 38.912 1.278 38.144 1.278 L 25.856 1.278 C 25.088 1.278 24.48 1.822 24.352 2.59 L 23.199 10.719 C 21.311 11.487 19.583 12.543 18.015 13.727 L 10.367 10.655 C 9.663 10.399 8.863 10.655 8.479 11.359 L 2.366 21.983 C 1.982 22.655 2.11 23.487 2.75 23.936 L 9.247 28.992 C 9.087 29.952 8.959 31.008 8.959 32 C 8.959 32.992 9.023 34.048 9.183 35.008 L 2.686 40.064 C 2.11 40.513 1.95 41.377 2.302 42.017 L 8.447 52.641 C 8.831 53.345 9.631 53.569 10.335 53.345 L 17.983 50.273 C 19.583 51.489 21.279 52.513 23.167 53.281 L 24.32 61.41 C 24.48 62.178 25.088 62.722 25.856 62.722 L 38.144 62.722 C 38.912 62.722 39.552 62.178 39.648 61.41 L 40.801 53.281 C 42.689 52.513 44.417 51.489 45.985 50.273 L 53.633 53.345 C 54.337 53.601 55.137 53.345 55.521 52.641 L 61.666 42.017 C 62.05 41.313 61.89 40.513 61.282 40.064 L 54.849 35.008 Z  M 32 43.521 C 25.664 43.521 20.479 38.336 20.479 32 C 20.479 25.664 25.664 20.479 32 20.479 C 38.336 20.479 43.521 25.664 43.521 32 C 43.521 38.336 38.336 43.521 32 43.521 Z " fill="rgb(255,255,255)"/></g></symbol></svg>